# xmcd
#
# Track frame offsets: 
#        150
#        9415
#        25782
#        40595
#        51802
#        63507
#        79427
#        94685
#        113220
#        134673
#        152170
#
# Disc length: 2244 seconds
#
# Revision: 1
# Processed by: cddbd v1.5.2PL0 Copyright (c) Steve Scherf et al.
# Submitted via: ExactAudioCopy v1.0b3
#
DISCID=8a08c20b
DTITLE=Scotty McCreery - Christmas with Scotty McCreery
DYEAR=2012
DGENRE=Christmas
TTITLE0=Let It Snow
TTITLE1=First Noel
TTITLE2=Jingle Bells
TTITLE3=Holly Jolly Christmas
TTITLE4=Winter Wonderland
TTITLE5=Christmas in Heaven
TTITLE6=Mary Did You Know?
TTITLE7=Christmas Comin' 'Round Again
TTITLE8=O Holy Night
TTITLE9=The Christmas Song
TTITLE10=Santa Claus Is Back in Town
EXTD=
EXTT0=
EXTT1=
EXTT2=
EXTT3=
EXTT4=
EXTT5=
EXTT6=
EXTT7=
EXTT8=
EXTT9=
EXTT10=
PLAYORDER=
